<?xml version="1.0" encoding="UTF-8" standalone="no" ?>
<!DOCTYPE svg PUBLIC "-//W3C//DTD SVG 1.1//EN" "http://www.w3.org/Graphics/SVG/1.1/DTD/svg11.dtd">
<svg xmlns="http://www.w3.org/2000/svg" xmlns:xlink="http://www.w3.org/1999/xlink" version="1.1" width="1080" height="1080" viewBox="0 0 1080 1080" xml:space="preserve">
<desc>Created with Fabric.js 5.2.4</desc>
<defs>
</defs>
<g transform="matrix(1 0 0 1 540 540)" id="34ece7a9-0aa3-44e7-a3f5-f6003858a256"  >
<rect style="stroke: none; stroke-width: 1; stroke-dasharray: none; stroke-linecap: butt; stroke-dashoffset: 0; stroke-linejoin: miter; stroke-miterlimit: 4; fill: rgb(255,255,255); fill-rule: nonzero; opacity: 1; visibility: hidden;" vector-effect="non-scaling-stroke"  x="-540" y="-540" rx="0" ry="0" width="1080" height="1080" />
</g>
<g transform="matrix(1 0 0 1 540 540)" id="4268fbf7-01e6-422f-ad9f-fcaada3aba47"  >
</g>
<g transform="matrix(0 0 0 0 0 0)"  >
<g style=""   >
</g>
</g>
<g transform="matrix(2.54 0 0 2.27 531.49 520.98)"  >
<path style="stroke: none; stroke-width: 1; stroke-dasharray: none; stroke-linecap: butt; stroke-dashoffset: 0; stroke-linejoin: miter; stroke-miterlimit: 4; fill: rgb(255,255,255); fill-rule: evenodd; opacity: 1;" vector-effect="non-scaling-stroke"  transform=" translate(-109.48, -112.44)" d="M 183 97 L 183 148 C 183 154 185 158 185 163 L 87 163 C 87 156 90 152 90 142 C 90 133 90 123 90 114 C 90 86 87 54 117 38 C 132 31 139 33 152 37 C 155 28 161 21 168 17 C 168 16 169 16 169 16 C 158 8 146 5 134 6 C 134 6 133 6 133 6 L 51 6 C 44 6 39 11 39 18 L 39 18 C 39 25 44 30 51 30 L 63 30 C 69 32 74 37 74 43 L 74 43 C 74 49 70 54 64 56 L 22 56 C 15 56 9 62 9 70 L 9 70 C 9 77 15 84 22 84 C 32 84 64 79 67 95 C 67 97 67 98 67 100 C 66 105 63 108 58 110 L 49 110 C 41 110 35 116 35 124 L 35 124 C 35 131 40 137 47 138 C 47 139 64 136 64 152 L 64 152 C 64 153 64 154 64 155 C 63 157 61 158 60 161 C 58 163 56 164 53 165 L 50 165 C 49 165 48 165 47 165 L 47 165 L 47 165 C 41 166 37 172 37 178 L 37 178 C 37 186 42 192 50 192 L 78 192 C 79 192 80 192 81 192 C 90 192 100 191 109 191 C 130 191 152 191 174 191 C 182 191 199 192 205 189 C 224 177 207 153 206 149 C 205 143 206 107 205 94 C 201 97 197 98 192 98 C 188 98 186 97 183 97 z M 166 199 L 102 199 C 106 208 119 220 135 219 C 149 219 162 208 166 199 z M 17 166 L 18 166 C 25 166 30 172 30 179 L 30 179 C 30 186 25 192 18 192 L 17 192 C 10 192 5 186 5 179 L 5 179 C 5 172 10 166 17 166 z" stroke-linecap="round" />
</g>
<g transform="matrix(2.54 0 0 2.27 531.18 553.63)"  >
<path style="stroke: none; stroke-width: 1; stroke-dasharray: none; stroke-linecap: butt; stroke-dashoffset: 0; stroke-linejoin: miter; stroke-miterlimit: 4; fill: rgb(255,255,255); fill-rule: evenodd; opacity: 1;" vector-effect="non-scaling-stroke"  transform=" translate(-109.5, -127)" d="M 98 96 L 97 141 L 95 158 L 124 157 C 124 157 106 157 103 125 L 101 111 L 98 96 z" stroke-linecap="round" />
</g>
<g transform="matrix(2.54 0 0 2.27 731.6 389.4)"  >
<path style="stroke: none; stroke-width: 1; stroke-dasharray: none; stroke-linecap: butt; stroke-dashoffset: 0; stroke-linejoin: miter; stroke-miterlimit: 4; fill: rgb(255,255,255); fill-rule: evenodd; opacity: 1;" vector-effect="non-scaling-stroke"  transform=" translate(-188.5, -54.5)" d="M 189 21 C 207 21 221 36 221 55 C 221 73 207 88 189 88 C 171 88 156 73 156 55 C 156 36 171 21 189 21 z M 189 41 C 196 41 202 47 202 55 C 202 62 196 68 189 68 C 182 68 176 62 176 55 C 176 47 182 41 189 41 z" stroke-linecap="round" />
</g>
</svg>