<?xml version="1.0" encoding="UTF-8"?>
<!DOCTYPE svg PUBLIC "-//W3C//DTD SVG 1.1//EN" "http://www.w3.org/Graphics/SVG/1.1/DTD/svg11.dtd">
<!-- Creator: CorelDRAW X7 -->
<svg xmlns="http://www.w3.org/2000/svg" xml:space="preserve" width="128px" height="128px" version="1.1" style="shape-rendering:geometricPrecision; text-rendering:geometricPrecision; image-rendering:optimizeQuality; fill-rule:evenodd; clip-rule:evenodd"
viewBox="0 0 102 102"
 xmlns:xlink="http://www.w3.org/1999/xlink">
 <defs>
  <style type="text/css">
   <![CDATA[
    .fil0 {fill:#FEFEFE}
    .fil1 {fill:#0B6670}
    .fil2 {fill:#0B6670;fill-rule:nonzero}
   ]]>
  </style>
    <clipPath id="id0">
     <path d="M0 0l102 0 0 102 -102 0 0 -102z"/>
    </clipPath>
 </defs>
 <g id="Layer_x0020_1">
  <metadata id="CorelCorpID_0Corel-Layer"/>
  <g id="_2058289101328">
   <g style="clip-path:url(#id0)">
    <image x="0" y="0" width="102" height="102" xlink:href="icon01_Images\icon01_ImgID1.png"/>
   </g>
  </g>
  <rect class="fil0" x="4" y="4" width="94.5481" height="94.5481" rx="18" ry="18"/>
  <path class="fil1" d="M31 48c1,-1 2,0 3,1 0,0 3,1 3,2 -1,0 -1,0 -2,0l-4 -3zm28 -13l0 3 1 -1c0,0 1,-1 1,-1 0,-1 0,-6 0,-8l-1 1 -1 6zm-7 19l1 0 1 0c-1,-1 -1,-2 -2,-2l-3 0c0,0 1,1 1,1 1,1 0,1 2,1zm-14 5c1,1 0,2 2,2 0,1 2,1 3,1 1,0 2,0 3,0 1,-1 2,-1 3,-1 0,-1 1,-2 1,-3 0,-4 -1,-3 -3,-5l0 0 0 0c-3,-1 -5,-1 -7,0 -2,2 -2,3 -2,6zm4 -1l-1 0c0,0 0,0 0,0l1 -1c1,-1 3,-2 3,-2l1 -1 1 1 -1 0c0,1 0,0 0,1 -1,0 -4,2 -4,2zm-14 -8c0,2 0,2 1,4 1,1 2,1 3,1 2,0 3,0 4,0 2,-2 0,-1 4,-4 0,-3 -1,-4 -3,-5 -3,-1 -5,0 -7,0 0,1 -1,1 -1,2 -1,0 -1,1 -1,2zm9 -20c1,4 1,10 1,14 1,1 2,1 3,2 1,0 2,1 3,1 3,1 5,1 8,0 0,0 1,0 1,0 1,0 0,0 1,0 0,-1 1,-3 2,-4l0 0c0,-1 0,-10 0,-10 -1,-1 -4,0 -4,0 -3,0 -7,0 -10,-1 -3,-1 -3,-1 -3,-3 0,0 -1,-1 -2,-1l0 2zm4 -7c0,-2 0,-2 3,-1 0,4 0,4 -1,3 -1,0 -1,0 -2,0l0 -2zm16 2l-1 0c0,0 0,0 0,0l0 0c0,0 -1,1 -1,1 0,0 0,0 0,-1 -1,0 -1,-2 0,-3l3 0c0,0 0,1 0,2 0,1 0,1 -1,1zm-21 0c0,0 1,1 1,1 1,0 1,1 2,1 0,0 1,1 1,1 1,0 3,1 4,1 5,1 15,1 18,-4 2,-1 1,-2 1,-3 0,-3 0,-3 -1,-5 -1,0 -1,-1 -3,-2 -5,-2 -16,-2 -21,1 -3,2 -2,4 -2,6 0,2 0,1 0,3zm35 8c0,-1 1,-2 1,-3l2 -2c1,0 3,2 3,2l-3 5c-1,0 -3,-1 -3,-2zm-7 3c1,0 3,2 3,2 0,1 0,1 -1,2l-3 -3c-1,0 -2,3 -2,3 0,1 1,1 1,2l2 1c0,0 0,0 0,0 0,0 -1,1 -1,1 0,0 -3,-2 -3,-2l-1 0c0,0 0,1 -1,1 0,1 0,1 -1,2 1,1 3,2 4,3 0,0 -1,1 -1,1 -1,0 -1,-1 -2,-1 -1,-1 -1,-2 -2,-2 0,1 -1,3 -2,3 0,0 0,0 0,1 0,1 2,4 3,5l-1 1c0,0 0,1 -1,1l-3 5c-1,1 1,3 2,1 0,0 1,-1 1,-2l3 -3c0,0 0,0 0,0 0,-1 0,-1 0,-2 1,1 4,3 5,2 1,0 9,-13 10,-13 0,-1 1,-2 1,-3 1,0 1,-1 2,-2 0,0 0,1 1,1 0,1 1,1 2,0 0,-1 0,-1 -1,-1 0,0 0,0 0,-1 -1,0 -2,-2 -3,-2 0,-1 1,-1 1,-1l1 -1c0,-1 0,-1 0,-1 0,0 0,0 0,0 1,-1 0,-1 1,-1 0,0 0,-1 0,-1 1,0 2,1 3,1 0,-1 0,-1 0,-2 0,0 -2,-1 -2,-2l-7 -5c-1,-1 -2,1 1,2 -1,1 -3,5 -4,6 0,-1 0,0 0,-1 -1,0 -3,-2 -4,-2 -1,-1 -1,0 -1,1 0,0 2,1 2,2 -1,1 -2,2 -2,3l0 1z"/>
  <path class="fil2" d="M26 80l0 -7 1 0 0 1c1,-1 1,-1 2,-1 1,0 1,0 2,0 0,0 0,1 0,1 0,0 1,0 1,1 0,0 0,0 0,1l0 4 -1 0 0 -4c0,-1 0,-1 -1,-1 0,0 0,-1 0,-1 0,0 -1,0 -1,0 0,0 -1,0 -1,0 0,1 -1,1 -1,2l0 4 -1 0z"/>
  <path id="1" class="fil2" d="M38 79c-1,0 -1,1 -1,1 -1,0 -1,0 -2,0 0,0 -1,0 -1,0 -1,-1 -1,-1 -1,-2 0,0 0,0 0,-1 0,0 1,0 1,0 0,-1 0,-1 1,-1 0,0 0,0 1,0 1,0 1,0 2,0 0,-1 0,-1 0,-1 0,0 0,0 -1,-1 0,0 0,0 -1,0 0,0 -1,0 -1,0 0,0 0,1 -1,1l-1 0c0,0 1,-1 1,-1 0,0 0,-1 1,-1 0,0 1,0 1,0 1,0 1,0 2,0 0,0 0,1 1,1 0,0 0,0 0,1 0,0 0,0 0,1l0 1c0,1 0,2 0,2 0,0 0,1 0,1l-1 0c0,0 0,-1 0,-1zm0 -2c-1,0 -1,0 -2,0 -1,0 -1,0 -1,0 0,0 0,0 -1,1 0,0 0,0 0,0 0,0 0,1 1,1 0,0 0,0 1,0 0,0 1,0 1,0 0,0 0,-1 1,-1 0,0 0,-1 0,-1l0 0z"/>
  <path id="2" class="fil2" d="M41 80l0 -7 1 0 0 1c0,0 0,-1 0,-1 1,0 1,0 1,0 1,0 1,0 1,0l0 1c0,0 -1,0 -1,0 0,0 0,0 -1,0 0,1 0,1 0,1 0,0 0,1 0,1l0 4 -1 0z"/>
  <path id="3" class="fil2" d="M49 77l2 1c-1,0 -1,1 -1,1 -1,1 -2,1 -2,1 -1,0 -2,0 -2,-1 -1,0 -1,-1 -1,-2 0,-1 0,-2 0,-2 0,-1 1,-1 1,-2 1,0 1,0 2,0 0,0 1,0 2,1 0,0 0,0 0,1l-1 0c0,0 0,0 0,-1 0,0 -1,0 -1,0 -1,0 -1,0 -2,1 0,0 0,1 0,2 0,0 0,1 0,2 1,0 1,0 2,0 0,0 1,0 1,0 0,-1 0,-1 0,-2z"/>
  <path id="4" class="fil2" d="M51 77c0,-2 0,-3 1,-3 1,-1 1,-1 2,-1 1,0 2,0 3,1 0,1 0,1 0,2 0,1 0,2 0,2 0,1 -1,1 -1,2 -1,0 -1,0 -2,0 -1,0 -1,0 -2,-1 -1,0 -1,-1 -1,-2zm1 0c0,0 0,1 1,1 0,1 1,1 1,1 1,0 1,0 2,-1 0,0 0,-1 0,-1 0,-1 0,-2 0,-2 -1,-1 -1,-1 -2,-1 0,0 -1,0 -1,1 -1,0 -1,1 -1,2z"/>
  <path id="5" class="fil2" d="M61 79l0 1c0,0 0,0 0,0 -1,0 -1,0 -1,0 -1,0 -1,0 -1,-1 0,0 0,0 0,-1l0 -4 -1 0 0 -1 1 0 0 -1 1 -1 0 2 1 0 0 1 -1 0 0 4c0,0 0,1 0,1 0,0 0,0 0,0 0,0 1,0 1,0 0,0 0,0 0,0z"/>
  <path id="6" class="fil2" d="M62 72l0 -1 2 0 0 1 -2 0zm0 8l0 -7 2 0 0 7 -2 0z"/>
  <path id="7" class="fil2" d="M70 77l1 1c0,0 -1,1 -1,1 -1,1 -1,1 -2,1 -1,0 -2,0 -2,-1 -1,0 -1,-1 -1,-2 0,-1 0,-2 0,-2 1,-1 1,-1 1,-2 1,0 1,0 2,0 1,0 1,0 2,1 0,0 1,0 1,1l-1 0c-1,0 -1,0 -1,-1 0,0 -1,0 -1,0 -1,0 -1,0 -1,1 -1,0 -1,1 -1,2 0,0 0,1 1,2 0,0 0,0 1,0 0,0 1,0 1,0 0,-1 1,-1 1,-2z"/>
  <path id="8" class="fil2" d="M71 78l1 0c0,0 1,1 1,1 0,0 1,0 1,0 1,0 1,0 1,0 1,0 1,-1 1,-1 0,0 0,0 -1,-1 0,0 0,0 -1,0 -1,0 -1,0 -2,0 0,-1 0,-1 0,-1 0,0 -1,-1 -1,-1 0,0 1,-1 1,-1 0,0 0,0 0,-1 0,0 1,0 1,0 0,0 1,0 1,0 0,0 1,0 1,0 1,0 1,1 1,1 0,0 1,0 1,1l-1 0c-1,0 -1,-1 -1,-1 0,0 -1,0 -1,0 0,0 -1,0 -1,0 0,0 0,1 0,1 0,0 0,0 0,0 0,0 0,0 0,1 0,0 1,0 1,0 1,0 2,0 2,0 0,0 0,1 1,1 0,0 0,1 0,1 0,0 0,1 0,1 -1,0 -1,1 -1,1 -1,0 -1,0 -2,0 -1,0 -1,0 -2,0 0,-1 -1,-1 -1,-2z"/>
  <path id="9" class="fil2" d="M34 83l0 -1 1 0 0 1 -1 0zm0 8l0 -7 1 0 0 7 -1 0z"/>
  <path id="10" class="fil2" d="M36 89l1 0c0,0 1,1 1,1 0,0 1,0 1,0 1,0 1,0 1,0 1,0 1,0 1,-1 0,0 0,0 -1,0 0,0 0,0 -1,-1 -1,0 -1,0 -2,0 0,0 0,-1 0,-1 0,0 -1,0 -1,-1 0,0 1,0 1,-1 0,0 0,0 0,0 0,0 1,0 1,-1 0,0 1,0 1,0 0,0 1,0 1,1 1,0 1,0 1,0 0,0 1,1 1,1l-2 0c0,0 0,0 0,0 0,-1 -1,-1 -1,-1 0,0 -1,0 -1,1 0,0 0,0 0,0 0,0 0,0 0,1 0,0 0,0 0,0 0,0 1,0 1,0 1,0 2,1 2,1 0,0 0,0 1,0 0,1 0,1 0,1 0,1 0,1 0,1 -1,1 -1,1 -1,1 -1,0 -1,0 -2,0 -1,0 -1,0 -2,0 0,-1 -1,-1 -1,-2z"/>
  <path id="11" class="fil2" d="M43 89l1 0c0,0 0,1 0,1 1,0 1,0 2,0 0,0 1,0 1,0 0,0 0,0 0,-1 0,0 0,0 0,0 0,0 -1,0 -1,-1 -1,0 -2,0 -2,0 0,0 -1,-1 -1,-1 0,0 0,0 0,-1 0,0 0,0 0,-1 0,0 0,0 1,0 0,0 0,0 0,-1 1,0 1,0 1,0 1,0 1,0 2,1 0,0 1,0 1,0 0,0 0,1 0,1l-1 0c0,0 0,0 0,0 -1,-1 -1,-1 -1,-1 -1,0 -1,0 -2,1 0,0 0,0 0,0 0,0 0,0 0,1 0,0 0,0 1,0 0,0 0,0 1,0 0,0 1,1 1,1 1,0 1,0 1,0 0,1 0,1 0,1 0,1 0,1 0,1 0,1 -1,1 -1,1 0,0 -1,0 -1,0 -1,0 -2,0 -2,0 -1,-1 -1,-1 -1,-2z"/>
  <path id="12" class="fil2" d="M54 91l0 -1c0,1 -1,1 -2,1 0,0 -1,0 -1,0 0,0 -1,0 -1,0 0,-1 0,-1 0,-1 0,0 0,-1 0,-1l0 -5 1 0 0 4c0,1 0,1 0,1 0,1 0,1 0,1 1,0 1,0 1,0 1,0 1,0 1,0 0,0 1,0 1,-1 0,0 0,0 0,-1l0 -4 1 0 0 7 -1 0z"/>
  <path id="13" class="fil2" d="M62 89l1 0c0,1 -1,1 -1,2 -1,0 -1,0 -2,0 -1,0 -2,0 -3,-1 0,0 0,-1 0,-2 0,-1 0,-2 0,-3 1,0 2,-1 3,-1 1,0 1,1 2,1 0,1 1,2 1,3 0,0 0,0 0,0l-5 0c0,1 0,1 0,2 1,0 1,0 2,0 0,0 1,0 1,0 0,0 0,0 1,-1zm-4 -2l4 0c0,0 -1,-1 -1,-1 0,0 -1,-1 -1,-1 -1,0 -1,0 -2,1 0,0 0,1 0,1z"/>
  <path id="14" class="fil2" d="M64 89l1 0c0,0 0,1 0,1 1,0 1,0 2,0 0,0 1,0 1,0 0,0 0,0 0,-1 0,0 0,0 0,0 0,0 -1,0 -1,-1 -1,0 -2,0 -2,0 0,0 -1,-1 -1,-1 0,0 0,0 0,-1 0,0 0,0 0,-1 0,0 0,0 1,0 0,0 0,0 0,-1 1,0 1,0 1,0 1,0 1,0 2,1 0,0 0,0 1,0 0,0 0,1 0,1l-1 0c0,0 0,0 -1,0 0,-1 0,-1 -1,-1 0,0 0,0 -1,1 0,0 0,0 0,0 0,0 0,0 0,1 0,0 0,0 1,0 0,0 0,0 1,0 0,0 1,1 1,1 1,0 1,0 1,0 0,1 0,1 0,1 0,1 0,1 0,1 0,1 -1,1 -1,1 0,0 -1,0 -1,0 -1,0 -2,0 -2,0 -1,-1 -1,-1 -1,-2z"/>
 </g>
</svg>
